<?xml version="1.0" standalone="no"?>
<!DOCTYPE svg PUBLIC "-//W3C//DTD SVG 20010904//EN"
 "http://www.w3.org/TR/2001/REC-SVG-20010904/DTD/svg10.dtd">
<svg version="1.0" xmlns="http://www.w3.org/2000/svg"
 width="900.000000pt" height="864.000000pt" viewBox="0 0 900.000000 864.000000"
 preserveAspectRatio="xMidYMid meet">
<metadata>
Created by potrace 1.10, written by Peter Selinger 2001-2011
</metadata>
<g transform="translate(0.000000,864.000000) scale(0.100000,-0.100000)"
fill="#ffffff" stroke="none">
<path d="M4120 8310 c-14 -4 -54 -8 -89 -9 -35 -1 -93 -7 -130 -15 -67 -15
-170 -32 -271 -45 -30 -4 -71 -12 -90 -19 -19 -7 -96 -28 -170 -48 -74 -19
-160 -44 -190 -55 -30 -11 -89 -31 -130 -45 -41 -14 -84 -29 -95 -34 -11 -4
-60 -24 -110 -45 -49 -20 -99 -40 -110 -44 -56 -23 -289 -141 -353 -178 -40
-24 -75 -43 -78 -43 -6 0 -126 -77 -202 -129 -28 -20 -60 -40 -70 -46 -16 -9
-155 -112 -237 -175 -265 -204 -550 -498 -762 -785 -43 -57 -160 -230 -189
-278 -16 -27 -37 -61 -46 -75 -10 -15 -28 -47 -40 -72 -13 -25 -36 -64 -51
-87 -15 -24 -27 -45 -27 -48 0 -2 -24 -55 -54 -117 -30 -62 -64 -138 -76 -168
-11 -30 -27 -68 -34 -85 -16 -34 -34 -87 -46 -130 -29 -102 -63 -213 -71 -228
-6 -10 -14 -37 -19 -60 -4 -23 -22 -109 -39 -191 -18 -82 -34 -153 -37 -158
-4 -5 -10 -44 -14 -86 -5 -42 -14 -113 -21 -157 -17 -111 -18 -795 0 -885 7
-36 16 -101 21 -145 5 -44 13 -93 18 -110 6 -16 18 -66 27 -110 9 -44 23 -100
31 -124 8 -25 14 -55 14 -67 0 -13 6 -38 14 -56 8 -18 24 -67 37 -108 32 -109
77 -246 88 -267 5 -10 17 -38 26 -63 56 -146 196 -422 276 -544 22 -32 39 -61
39 -63 0 -16 182 -271 249 -350 20 -22 65 -76 101 -120 124 -150 438 -452 580
-559 152 -113 262 -190 365 -252 39 -24 77 -47 85 -52 52 -33 173 -100 178
-100 3 0 63 -28 132 -61 69 -34 139 -68 155 -74 17 -7 46 -20 65 -28 69 -30
106 -45 165 -65 33 -12 85 -31 115 -43 30 -11 66 -23 80 -25 14 -3 48 -11 75
-19 28 -8 79 -21 115 -31 36 -9 85 -22 110 -29 77 -21 142 -35 215 -45 78 -10
167 -24 265 -40 134 -22 506 -33 745 -22 127 6 255 15 285 21 30 5 89 15 130
21 67 11 158 26 290 49 25 5 81 18 125 31 44 12 96 26 116 30 19 3 41 10 47
14 6 3 30 10 54 15 24 5 68 19 98 31 30 11 91 33 135 47 44 14 117 43 163 64
46 21 87 39 91 39 13 0 310 152 358 183 24 15 47 27 51 27 5 0 28 13 50 30 23
16 44 30 47 30 3 0 18 8 33 19 15 10 69 46 121 81 51 34 101 68 110 76 9 7 43
35 77 61 176 138 222 179 369 327 148 149 215 224 320 361 22 28 50 65 62 81
97 125 223 306 240 344 4 8 18 33 32 55 14 22 46 81 72 130 25 50 53 104 62
120 19 37 37 78 77 180 18 44 36 89 41 100 5 11 13 34 18 50 5 17 19 55 31 85
12 30 26 69 30 85 5 17 16 53 24 80 9 28 21 70 27 95 6 25 18 60 25 78 8 18
14 44 14 58 0 14 6 46 14 72 8 26 22 92 31 147 9 55 23 133 31 174 8 40 14 96
14 125 0 28 7 76 15 106 21 77 21 536 0 630 -8 36 -14 92 -15 125 0 33 -4 76
-10 95 -5 19 -16 78 -24 130 -30 184 -45 247 -116 490 -33 111 -53 168 -76
212 -8 14 -14 33 -14 42 0 38 -204 460 -292 604 -21 34 -38 65 -38 68 0 3 -13
23 -30 44 -16 21 -30 42 -30 46 0 10 -132 190 -215 295 -161 203 -371 425
-542 571 -197 169 -510 392 -680 485 -95 51 -357 183 -365 183 -4 0 -35 13
-70 28 -35 16 -83 37 -108 46 -25 10 -54 22 -65 27 -11 5 -49 18 -85 29 -36
12 -74 26 -85 30 -33 16 -103 37 -245 74 -74 20 -150 41 -169 47 -34 11 -57
15 -226 39 -44 6 -100 16 -125 22 -25 5 -92 15 -150 20 -135 13 -657 19 -690
8z m258 -427 c11 -21 22 -51 26 -66 11 -47 98 -217 107 -211 5 3 9 72 9 154 0
138 1 149 19 155 21 6 97 5 119 -3 14 -5 17 -243 5 -502 -7 -181 -12 -190 -89
-185 -36 2 -52 9 -65 26 -10 13 -19 29 -19 35 0 5 -20 50 -45 98 -25 49 -45
94 -45 101 0 6 -11 24 -24 40 l-24 28 5 -146 c5 -110 3 -150 -7 -162 -16 -19
-93 -20 -109 -1 -19 22 -44 638 -27 664 4 7 35 12 76 12 l70 0 18 -37z m-429
-21 c18 -33 24 -89 10 -97 -19 -12 -129 -34 -171 -35 -20 0 -39 -3 -41 -7 -8
-13 14 -127 27 -140 9 -10 26 -10 71 -3 33 5 62 6 65 2 4 -4 12 -26 19 -50 16
-55 6 -68 -59 -77 -62 -9 -74 -23 -66 -79 11 -68 20 -72 144 -58 119 13 117
14 128 -56 9 -58 -5 -72 -73 -72 -30 0 -84 -6 -121 -14 -91 -20 -165 -27 -178
-18 -11 7 -39 126 -55 230 -4 29 -12 74 -18 100 -6 26 -15 76 -21 112 -5 36
-15 95 -22 133 -9 52 -9 70 0 79 17 17 89 38 132 38 19 1 62 7 95 14 86 20
123 19 134 -2z m1101 -2 c36 -6 88 -18 115 -25 28 -7 69 -16 92 -19 23 -3 54
-11 69 -18 24 -11 25 -15 19 -56 -9 -59 -14 -70 -33 -74 -17 -4 -58 3 -99 16
-29 9 -43 -19 -72 -149 -12 -55 -29 -123 -36 -151 -8 -28 -15 -62 -15 -75 0
-31 -26 -129 -38 -141 -10 -10 -103 8 -127 26 -16 11 -16 18 5 112 13 54 27
122 33 149 5 28 15 66 22 85 12 30 23 94 28 164 2 16 -10 22 -63 35 -58 14
-65 19 -68 42 -2 15 4 44 12 64 18 42 16 41 156 15z m685 -195 c134 -54 189
-103 201 -181 17 -113 -24 -201 -116 -246 -30 -14 -57 -34 -61 -45 -4 -10 -8
-69 -8 -130 -1 -106 -2 -113 -21 -113 -11 0 -28 4 -38 10 -9 5 -29 14 -44 20
l-28 10 0 119 c0 93 -3 121 -15 131 -25 21 -39 5 -74 -84 -45 -114 -53 -121
-117 -97 -47 19 -49 20 -48 58 1 38 40 154 109 318 20 50 51 124 68 165 16 41
38 83 49 92 21 19 34 16 143 -27z m-2464 13 c71 -24 131 -93 116 -132 -3 -8
-25 -20 -48 -26 -37 -10 -45 -9 -70 9 -33 25 -91 27 -113 5 -18 -17 -21 -71
-6 -106 5 -13 27 -70 50 -128 54 -140 98 -177 158 -134 18 12 22 25 22 63 0
57 14 73 65 74 51 1 60 -13 60 -97 0 -64 -3 -77 -27 -108 -58 -76 -180 -104
-263 -61 -89 47 -150 153 -206 358 -24 91 -24 104 8 171 45 95 158 145 254
112z m3229 -381 c90 -54 220 -158 220 -176 0 -25 -47 -81 -68 -81 -10 0 -50
25 -91 55 -41 31 -79 54 -85 52 -14 -5 -65 -78 -66 -94 0 -6 25 -33 55 -59 30
-26 55 -54 55 -61 0 -14 -58 -83 -70 -83 -5 0 -31 18 -59 40 -28 22 -56 40
-64 40 -18 0 -87 -85 -87 -107 0 -11 30 -39 75 -71 41 -30 75 -59 75 -65 0
-20 -52 -87 -68 -87 -22 0 -271 169 -283 192 -8 14 -6 25 8 42 74 97 234 309
280 373 18 25 47 62 64 84 34 44 45 44 109 6z m-4075 -12 c15 -20 24 -42 22
-50 -3 -7 -27 -28 -54 -46 -56 -38 -113 -90 -113 -102 0 -15 74 -97 87 -97 8
0 36 16 64 35 28 19 55 35 59 35 16 0 69 -70 64 -85 -3 -8 -28 -31 -55 -51
-27 -20 -49 -40 -49 -45 0 -5 17 -32 37 -59 25 -33 45 -50 59 -50 12 0 49 20
83 45 34 25 70 45 80 45 23 0 75 -65 67 -85 -5 -13 -109 -95 -122 -95 -3 0
-23 -13 -44 -30 -21 -16 -41 -30 -44 -30 -4 0 -20 -10 -36 -21 -35 -27 -52
-21 -84 28 -14 21 -62 83 -105 138 -44 55 -111 141 -150 191 -38 49 -76 96
-85 103 -23 19 -20 58 5 72 12 6 71 51 132 100 65 52 119 89 132 89 14 0 33
-14 50 -35z m2225 -320 c260 -26 511 -84 720 -165 30 -12 66 -25 80 -30 34
-11 98 -39 203 -90 395 -189 776 -512 1068 -904 76 -102 93 -130 176 -276 95
-170 147 -289 200 -460 46 -145 60 -197 83 -300 12 -52 26 -111 31 -130 16
-54 22 -480 10 -600 -21 -200 -36 -270 -111 -505 -57 -176 -64 -193 -139 -345
-56 -112 -95 -177 -170 -289 -20 -29 -43 -63 -51 -75 -54 -80 -250 -296 -347
-382 -42 -38 -89 -79 -103 -92 -24 -23 -208 -157 -242 -177 -9 -5 -60 -36
-113 -69 -214 -130 -545 -267 -545 -226 0 23 59 115 129 201 114 142 176 199
346 319 217 153 328 242 441 355 158 157 226 262 318 490 18 45 95 269 103
300 3 11 16 56 30 100 32 107 56 184 83 275 53 176 127 356 170 415 4 6 14 33
23 62 33 101 14 202 -41 221 -39 13 -133 -8 -201 -45 -68 -38 -164 -131 -217
-210 -57 -86 -115 -223 -169 -398 -15 -49 -36 -109 -46 -132 -11 -23 -19 -46
-19 -52 0 -5 -6 -22 -14 -38 -8 -15 -36 -80 -62 -143 -75 -183 -140 -294 -259
-442 -164 -205 -391 -383 -646 -506 -100 -49 -136 -55 -98 -19 13 13 53 45 89
73 161 121 338 284 441 404 190 222 269 348 379 611 29 68 59 138 66 156 8 17
14 35 14 39 0 7 32 99 75 214 97 261 202 413 354 514 59 39 71 51 85 92 25 73
21 147 -8 181 -23 27 -28 28 -113 27 -77 -1 -95 -5 -148 -32 -102 -51 -229
-155 -309 -252 -44 -54 -175 -275 -222 -375 -23 -49 -56 -137 -74 -195 -58
-185 -60 -190 -94 -205 -75 -32 -130 -110 -179 -252 -44 -124 -69 -170 -129
-237 -84 -95 -140 -131 -408 -263 -96 -47 -202 -107 -235 -132 -171 -129 -304
-339 -334 -526 -5 -33 -14 -73 -20 -88 -6 -16 -11 -49 -12 -75 0 -26 -4 -56
-8 -67 -11 -28 -18 25 -26 185 -10 206 17 317 111 465 39 61 169 187 247 239
52 34 227 126 241 126 2 0 49 22 104 48 194 94 297 196 337 332 39 135 87 210
191 300 35 30 45 49 69 125 15 50 32 94 36 99 5 6 9 16 9 23 0 20 92 203 129
256 17 25 31 48 31 52 0 3 16 27 35 52 21 28 32 50 26 56 -12 12 -139 3 -181
-14 -54 -21 -132 -83 -166 -131 -44 -60 -104 -219 -104 -274 0 -50 -71 -226
-106 -265 -8 -8 -14 -19 -14 -22 0 -4 -26 -42 -57 -85 -99 -135 -190 -213
-388 -332 -214 -128 -327 -214 -420 -319 -107 -121 -113 -127 -121 -108 -3 10
-3 132 1 272 l7 254 41 48 c86 100 165 170 247 217 186 106 340 225 340 260 0
26 -112 -13 -268 -92 -107 -54 -132 -61 -132 -38 0 40 173 213 269 270 74 43
228 96 281 96 33 0 43 6 79 49 23 27 41 54 41 60 0 16 -81 14 -158 -5 -334
-82 -540 -246 -661 -526 -76 -175 -91 -169 -91 35 0 170 8 196 80 274 127 136
172 218 196 358 18 108 11 198 -28 330 -23 79 -101 239 -155 317 -20 29 -53
79 -74 110 -48 70 -55 75 -81 52 -62 -57 -205 -308 -261 -458 -48 -130 -54
-335 -14 -442 29 -75 106 -199 147 -234 3 -3 27 -31 53 -64 l47 -58 -2 -161
c-2 -96 -7 -162 -13 -163 -5 -2 -32 45 -60 103 -83 177 -176 286 -330 388 -87
57 -138 81 -230 109 -33 9 -81 24 -106 32 -55 17 -169 19 -169 3 0 -5 19 -32
43 -60 29 -34 50 -49 67 -49 43 0 183 -39 240 -67 110 -53 212 -141 302 -260
44 -58 47 -80 8 -60 -267 139 -358 175 -374 148 -13 -20 135 -147 214 -184 8
-4 29 -16 45 -27 17 -11 40 -24 53 -30 76 -33 177 -117 247 -205 22 -28 45
-56 52 -63 17 -17 19 -527 3 -537 -6 -4 -25 10 -43 31 -166 194 -274 280 -542
432 -49 28 -115 71 -145 95 -99 78 -231 242 -294 364 -22 44 -76 212 -76 239
0 29 -34 132 -60 185 -33 64 -112 142 -177 174 -63 31 -185 47 -205 27 -8 -8
6 -36 48 -99 32 -48 64 -97 70 -108 6 -11 26 -47 44 -80 32 -58 130 -316 130
-342 0 -7 20 -24 45 -38 77 -46 132 -131 180 -282 19 -57 40 -97 73 -139 89
-110 159 -156 467 -300 234 -110 394 -268 471 -466 28 -71 29 -79 28 -243 -1
-159 -9 -273 -20 -262 -3 2 -9 47 -15 98 -10 95 -32 200 -51 248 -115 280
-237 405 -525 537 -54 25 -114 54 -134 64 -20 11 -47 26 -60 33 -48 25 -145
97 -195 144 -91 86 -124 140 -178 294 -36 103 -81 167 -146 210 l-54 37 -38
118 c-55 175 -62 194 -129 322 -156 300 -298 462 -488 557 -66 33 -84 38 -153
39 -72 1 -80 -1 -105 -26 -23 -23 -27 -35 -27 -90 -1 -90 23 -140 87 -179 68
-42 161 -132 207 -199 59 -88 129 -238 160 -345 27 -93 108 -299 162 -415 22
-47 44 -94 49 -105 5 -11 13 -27 18 -35 6 -8 29 -49 52 -90 43 -76 106 -176
127 -201 7 -8 35 -43 64 -79 63 -80 283 -300 398 -399 47 -41 100 -86 118
-102 19 -16 38 -29 43 -29 5 0 9 -4 9 -10 0 -23 -20 -15 -190 77 -208 113
-422 296 -566 485 -41 53 -74 99 -74 101 0 1 -29 53 -64 115 -35 62 -76 142
-91 179 -15 38 -33 82 -40 98 -32 76 -73 189 -141 390 -81 243 -152 352 -299
461 -46 35 -99 58 -171 75 -47 11 -55 10 -85 -7 -27 -16 -37 -30 -46 -68 -18
-73 2 -151 70 -272 31 -54 59 -111 62 -127 4 -15 11 -30 16 -33 5 -3 9 -12 9
-21 0 -9 14 -62 30 -117 17 -56 38 -126 46 -156 72 -248 138 -447 194 -585 55
-136 153 -315 209 -380 103 -120 268 -264 430 -375 290 -197 449 -350 559
-537 43 -73 30 -79 -77 -38 -384 148 -704 349 -950 594 -173 173 -226 235
-332 391 -242 355 -374 707 -424 1136 -28 246 -17 524 31 744 41 186 100 377
154 495 127 279 232 454 399 660 180 223 419 435 681 606 190 124 284 174 480
254 63 25 130 53 148 61 18 8 40 14 48 14 9 0 30 6 47 14 18 8 43 16 57 19 14
2 59 14 100 25 41 11 125 30 185 41 278 53 442 61 695 36z m-2592 -177 c87
-90 188 -195 226 -235 l68 -71 -42 -46 c-24 -25 -48 -46 -55 -46 -6 0 -47 38
-90 85 -51 56 -85 85 -99 85 -12 0 -39 -17 -59 -38 l-37 -38 90 -89 c49 -50
90 -97 90 -105 -1 -17 -86 -93 -100 -88 -5 2 -39 32 -77 68 -37 36 -139 132
-225 214 -89 83 -158 156 -158 166 0 21 73 90 96 90 9 0 50 -31 92 -70 43 -40
85 -70 96 -70 21 0 86 51 86 66 0 5 -36 47 -80 92 -44 46 -80 87 -80 91 0 11
82 101 92 101 5 0 80 -73 166 -162z m5101 -43 c64 -40 96 -97 96 -170 0 -53
-5 -67 -39 -117 -45 -69 -213 -230 -265 -254 -87 -42 -184 -30 -248 29 -81 75
-93 136 -45 235 32 68 196 238 263 274 85 45 171 46 238 3z m-5639 -301 c22
-20 40 -42 40 -50 0 -7 -16 -30 -35 -51 -19 -21 -35 -45 -35 -53 0 -18 60 -64
175 -135 100 -62 216 -143 231 -162 9 -11 5 -24 -20 -63 -17 -27 -38 -49 -47
-49 -9 -1 -31 9 -50 22 -19 13 -76 49 -128 81 -51 32 -133 86 -182 122 l-88
64 -41 -60 c-45 -66 -58 -71 -114 -42 -52 25 -47 49 31 150 114 150 209 262
220 262 2 0 21 -16 43 -36z m6056 -250 c105 -159 106 -162 46 -197 -19 -11
-37 -15 -45 -10 -8 4 -36 40 -62 78 -69 102 -62 99 -122 64 -63 -37 -66 -52
-18 -108 40 -49 37 -64 -16 -91 -47 -25 -62 -19 -93 35 -34 57 -49 61 -102 25
-25 -16 -47 -30 -50 -30 -3 0 -30 -16 -60 -35 -30 -19 -61 -35 -69 -35 -16 0
-65 71 -65 94 0 13 78 72 130 99 8 4 27 15 42 25 15 9 62 38 105 64 43 26 119
74 168 107 50 33 95 61 102 61 7 0 56 -66 109 -146z m-6435 -828 c9 -19 5 -38
-21 -102 -63 -157 -110 -325 -110 -400 -1 -22 -7 -66 -15 -99 -8 -33 -15 -78
-15 -100 0 -53 -24 -87 -58 -83 -33 4 -44 41 -35 128 7 73 36 219 52 265 6 17
26 84 45 150 42 145 54 179 83 228 26 43 58 49 74 13z m6630 8 c14 -17 17 -24
62 -154 36 -104 77 -266 77 -305 0 -18 6 -51 14 -73 8 -22 16 -89 18 -148 l3
-109 -27 -3 c-36 -4 -45 16 -58 129 -11 105 -34 229 -55 304 -8 28 -19 66 -24
85 -5 19 -23 73 -41 120 -36 96 -45 133 -36 155 7 20 50 19 67 -1z m-3315
-246 c90 -141 138 -255 159 -373 19 -102 19 -139 0 -218 -23 -99 -95 -217
-132 -217 -14 0 -15 16 -10 133 3 72 2 201 -4 286 -14 209 -39 266 -81 180
-13 -29 -17 -80 -20 -317 -2 -194 -6 -282 -14 -282 -18 0 -104 108 -104 130 0
6 -7 24 -15 40 -11 22 -16 64 -16 153 -1 104 2 135 21 193 13 38 26 74 30 79
4 6 12 25 18 43 18 53 122 223 133 216 5 -3 21 -24 35 -46z m-3185 -698 c21
-12 25 -40 7 -58 -18 -18 -607 -17 -633 2 -22 16 -14 43 17 56 33 13 584 13
609 0z m6939 -10 c16 -25 11 -40 -16 -50 -35 -14 -600 -13 -625 0 -25 14 -24
35 4 55 19 14 61 15 325 13 256 -3 304 -5 312 -18z m-7489 -326 c11 -14 10
-18 -6 -30 -10 -8 -36 -14 -57 -14 -21 0 -38 -4 -38 -10 0 -5 0 -13 0 -17 -1
-5 16 -10 37 -13 64 -9 56 -59 -10 -60 -22 0 -28 -4 -25 -17 2 -14 16 -19 53
-23 42 -4 50 -8 53 -27 3 -22 1 -23 -86 -23 -73 0 -91 3 -96 16 -11 30 -7 209
6 222 19 19 152 16 169 -4z m270 -5 c20 -31 5 -44 -45 -42 -41 3 -47 0 -44
-15 2 -9 14 -18 28 -20 59 -8 99 -82 66 -124 -30 -40 -128 -46 -168 -10 -39
34 -8 60 49 41 26 -8 37 -8 49 2 14 12 14 14 -2 26 -10 7 -26 13 -36 13 -27 0
-68 45 -68 75 0 14 11 37 26 52 23 23 31 25 81 21 32 -3 59 -11 64 -19z m287
-6 c3 -18 -1 -23 -20 -23 -38 0 -48 -19 -48 -93 0 -73 -11 -107 -36 -107 -21
0 -32 37 -30 103 3 64 -13 97 -45 97 -24 0 -37 29 -18 41 8 5 55 8 104 7 85
-3 90 -4 93 -25z m6335 15 c58 -30 62 -81 12 -137 -19 -21 -35 -41 -35 -43 0
-3 14 -8 30 -12 34 -6 50 -33 29 -47 -8 -5 -48 -9 -90 -9 -129 0 -139 33 -34
110 41 30 55 47 55 65 0 29 -30 35 -50 10 -16 -19 -31 -19 -55 -1 -19 14 -19
15 0 36 35 39 95 51 138 28z m295 -18 c34 -27 40 -43 41 -103 1 -40 -4 -53
-32 -84 -30 -32 -40 -36 -81 -36 -40 0 -52 5 -79 32 -29 29 -32 37 -32 96 0
53 4 68 24 89 39 41 110 44 159 6z m288 -1 c36 -33 32 -75 -11 -115 -19 -18
-35 -35 -35 -38 0 -3 17 -6 38 -8 32 -3 37 -7 40 -30 3 -24 0 -27 -40 -33 -48
-7 -139 -2 -156 9 -27 17 -10 46 53 91 44 31 65 53 65 67 0 18 -4 19 -37 14
-72 -12 -77 -11 -81 7 -5 23 23 54 52 61 39 8 89 -3 112 -25z m258 19 c37 -16
70 -89 61 -136 -9 -52 -31 -81 -71 -98 -45 -19 -95 -10 -126 23 -20 21 -23 35
-23 95 0 66 2 71 33 99 35 32 81 38 126 17z m-7086 -205 c-2 -22 -9 -29 -30
-31 -25 -3 -28 0 -28 27 0 28 3 31 31 31 27 0 30 -3 27 -27z m6552 -288 c16
-19 -6 -108 -67 -270 -25 -66 -51 -136 -58 -154 -14 -38 -40 -54 -67 -39 -24
12 -23 41 3 108 59 154 81 218 89 250 11 41 35 102 46 113 12 12 41 8 54 -8z
m-6933 -3 c7 -5 22 -42 34 -83 11 -40 27 -89 35 -107 8 -18 14 -39 14 -46 0
-7 14 -48 31 -90 36 -90 36 -130 -1 -134 -17 -2 -29 4 -38 18 -14 23 -62 148
-93 245 -10 33 -27 83 -36 112 -16 50 -16 53 2 73 19 21 33 24 52 12z m6280
-752 c88 -44 91 -50 46 -102 -92 -106 -113 -136 -107 -151 3 -9 47 -46 97 -81
51 -36 128 -92 172 -124 44 -32 119 -82 168 -111 48 -29 87 -55 87 -59 0 -22
-118 -162 -137 -162 -7 0 -40 19 -72 43 -33 23 -87 62 -122 87 -35 25 -121 89
-193 143 -71 53 -135 97 -142 97 -7 0 -17 -6 -21 -14 -17 -29 -123 -136 -136
-136 -17 0 -121 88 -125 106 -2 7 39 61 91 118 116 128 199 231 255 314 26 37
50 62 61 62 10 0 45 -14 78 -30z m-5497 -177 c120 -45 204 -129 243 -247 22
-66 21 -104 -4 -146 -27 -44 -69 -90 -84 -90 -14 0 -99 81 -108 102 -3 9 1 24
8 35 33 43 9 116 -52 158 -47 31 -83 32 -112 1 l-22 -23 37 -94 c83 -209 90
-269 46 -359 -21 -42 -39 -62 -76 -85 -43 -26 -59 -30 -125 -30 -66 0 -85 4
-141 32 -107 53 -164 119 -200 232 -19 62 -20 67 -4 120 21 73 49 127 70 135
11 4 33 -9 69 -41 56 -51 65 -76 45 -128 -31 -80 116 -198 174 -139 18 17 22
94 7 110 -13 12 -69 183 -77 233 -8 51 18 136 54 175 59 63 161 83 252 49z
m514 -533 c28 -16 62 -38 75 -49 l24 -18 -36 -64 c-20 -35 -70 -111 -111 -169
-86 -120 -164 -245 -172 -277 -9 -33 30 -110 68 -133 60 -37 147 -21 199 36
27 30 73 98 203 295 41 64 83 120 92 123 19 7 132 -51 148 -76 7 -12 3 -27
-19 -60 -17 -23 -34 -51 -40 -60 -185 -308 -236 -382 -295 -423 -58 -40 -107
-54 -192 -55 -104 0 -167 25 -246 95 -74 67 -96 102 -113 177 -21 98 12 196
119 348 25 36 84 121 130 190 92 136 102 150 110 150 2 0 28 -13 56 -30z
m4445 -42 c57 -27 117 -88 142 -141 21 -48 25 -134 7 -183 -9 -25 -9 -36 0
-46 18 -22 192 -104 260 -123 35 -10 26 -36 -37 -103 -57 -60 -83 -73 -96 -52
-3 6 -14 10 -24 10 -17 0 -81 31 -187 91 l-41 23 -52 -33 c-55 -36 -63 -57
-32 -85 11 -10 46 -52 77 -93 l58 -75 -65 -59 c-66 -61 -95 -77 -109 -62 -42
43 -500 672 -498 683 4 22 280 203 363 239 88 38 167 41 234 9z m-1459 -17 c0
-6 -4 -12 -9 -15 -5 -4 -19 -25 -30 -49 -11 -23 -41 -73 -66 -111 -25 -38 -45
-72 -45 -77 0 -4 -6 -14 -13 -21 -7 -7 -18 -22 -25 -33 -16 -28 -15 0 1 45 23
64 96 182 154 250 19 21 33 26 33 11z m-1526 -206 c14 -30 26 -64 26 -75 0
-31 -17 -32 -29 -2 -6 15 -21 43 -32 62 -32 51 -79 146 -79 156 1 20 89 -89
114 -141z m-708 -190 c16 -8 38 -15 50 -15 11 0 24 -4 30 -9 5 -5 25 -14 44
-19 271 -80 380 -227 310 -415 -40 -105 -118 -168 -228 -183 -51 -6 -180 15
-264 44 -37 13 -49 14 -61 4 -8 -7 -36 -62 -62 -122 -26 -61 -53 -110 -61
-110 -7 0 -47 16 -88 35 -89 41 -91 46 -45 144 34 71 96 204 134 286 13 28 40
86 60 130 21 44 49 105 63 135 32 70 60 110 77 110 7 0 26 -7 41 -15z m2806
-37 c62 -14 142 -61 196 -118 79 -81 152 -265 152 -385 0 -130 -78 -245 -208
-307 -63 -31 -74 -33 -172 -33 -100 0 -108 2 -174 35 -42 22 -86 55 -115 86
-84 92 -151 262 -151 382 1 225 233 393 472 340z m-1852 -204 c137 -22 195
-42 245 -86 172 -152 105 -419 -120 -478 -27 -7 -103 -14 -168 -15 -65 -1
-122 -6 -127 -11 -5 -5 -13 -40 -19 -79 -14 -90 -30 -167 -36 -173 -4 -5 -71
5 -162 24 -12 2 -23 12 -25 22 -4 18 18 147 27 162 3 5 10 37 15 72 19 136 92
503 111 556 l11 33 77 -6 c42 -3 119 -13 171 -21z m980 -9 c79 -17 134 -50
170 -102 28 -41 60 -136 60 -178 0 -88 -71 -194 -157 -236 -27 -12 -100 -32
-163 -44 l-115 -21 -3 -33 c-2 -18 1 -78 7 -134 7 -71 7 -105 -1 -114 -12 -15
-183 -19 -192 -5 -3 5 -12 161 -21 348 -8 186 -18 371 -21 410 -8 93 1 104 99
105 40 1 99 5 132 9 97 12 130 11 205 -5z"/>
<path d="M5654 7494 c-9 -22 -17 -56 -18 -78 -1 -37 1 -40 41 -54 36 -13 46
-14 67 -2 25 13 46 55 46 91 0 30 -42 69 -82 76 -35 5 -37 4 -54 -33z"/>
<path d="M4052 5480 c0 -19 2 -27 5 -17 2 9 2 25 0 35 -3 9 -5 1 -5 -18z"/>
<path d="M3820 5341 c0 -17 5 -33 10 -36 6 -3 10 -15 10 -26 0 -10 5 -27 10
-37 6 -9 20 -39 32 -67 18 -41 22 -46 26 -27 2 12 -4 44 -14 70 -20 55 -65
152 -70 152 -2 0 -4 -13 -4 -29z"/>
<path d="M4990 5329 c0 -12 -6 -35 -14 -52 -18 -40 -46 -132 -46 -148 0 -10 3
-10 11 -2 16 16 49 111 49 140 0 12 5 25 10 28 6 3 10 17 10 31 0 13 -4 24
-10 24 -5 0 -10 -9 -10 -21z"/>
<path d="M3681 5070 c0 -8 15 -42 34 -75 19 -33 42 -76 52 -95 16 -32 17 -33
21 -12 2 13 -4 32 -12 41 -9 10 -16 22 -16 27 0 5 -13 28 -28 50 -15 23 -32
50 -39 60 -9 14 -12 15 -12 4z"/>
<path d="M5137 5040 c-10 -19 -21 -42 -26 -50 -18 -31 -41 -91 -41 -107 0 -9
16 15 36 53 20 38 41 74 46 81 5 7 8 22 5 35 -3 21 -5 20 -20 -12z"/>
<path d="M3430 5005 c0 -3 5 -11 10 -18 6 -7 35 -43 66 -82 125 -155 143 -148
25 10 -53 72 -101 114 -101 90z"/>
<path d="M7009 6627 c-56 -43 -176 -159 -200 -194 -34 -48 -36 -73 -11 -96 24
-22 50 -21 84 1 38 25 178 160 210 203 l27 35 -19 32 c-21 35 -60 43 -91 19z"/>
<path d="M7797 4034 c-13 -13 -7 -91 7 -104 41 -33 97 23 78 78 -7 21 -16 28
-43 30 -19 2 -38 0 -42 -4z"/>
<path d="M8359 4013 c-16 -43 0 -87 34 -91 39 -5 57 14 57 57 0 44 -14 61 -52
61 -22 0 -31 -6 -39 -27z"/>
<path d="M6521 1924 c-38 -16 -121 -81 -121 -93 0 -14 121 -172 136 -178 17
-6 119 78 145 121 35 57 15 117 -51 151 -36 19 -65 18 -109 -1z"/>
<path d="M3083 1478 c-4 -7 -25 -53 -46 -103 -36 -85 -37 -90 -20 -106 22 -20
106 -49 145 -49 60 0 128 63 128 119 0 41 -66 121 -100 121 -9 0 -25 7 -36 15
-24 18 -60 19 -71 3z"/>
<path d="M5648 1467 c-21 -12 -47 -40 -60 -64 -23 -44 -23 -51 10 -173 18 -68
71 -167 106 -198 55 -48 104 -59 163 -37 59 22 79 39 101 84 26 56 19 114 -31
231 -24 54 -73 117 -119 150 -51 38 -114 40 -170 7z"/>
<path d="M3896 1278 c-11 -38 -36 -172 -36 -194 0 -31 31 -44 111 -44 72 0
110 18 139 65 55 90 -31 185 -168 185 -25 0 -44 -5 -46 -12z"/>
<path d="M4742 1267 c-11 -13 0 -174 14 -211 8 -21 75 -21 137 0 54 18 97 66
97 108 0 35 -24 81 -52 100 -29 21 -180 23 -196 3z"/>
</g>
</svg>
